<?xml version="1.0" encoding="UTF-8"?><svg id="b" xmlns="http://www.w3.org/2000/svg" viewBox="0 0 65 65"><defs><style>.e{fill:#fff;stroke-width:0px;}</style></defs><g id="c"><g id="d"><path class="e" d="m32.5,0C14.58,0,0,14.58,0,32.5s14.58,32.5,32.5,32.5c2.91,0,5.8-.39,8.6-1.15l-1.82-6.64c-2.19.6-4.47.9-6.78.9-14.12,0-25.62-11.49-25.62-25.62S18.38,6.88,32.5,6.88s25.62,11.49,25.62,25.62c0,3.5-.71,6.95-2.09,10.13h-10.11c2.13-2.82,3.4-6.33,3.4-10.13,0-9.28-7.55-16.82-16.82-16.82s-16.82,7.55-16.82,16.82,7.55,16.82,16.82,16.82c.19,0,27.72.19,27.72.19l.38-.7c2.88-4.93,4.4-10.57,4.4-16.31C65,14.58,50.42,0,32.5,0Zm0,42.44c-5.48,0-9.94-4.46-9.94-9.94s4.46-9.94,9.94-9.94,9.94,4.46,9.94,9.94-4.46,9.94-9.94,9.94Z"/></g></g></svg>