<?xml version="1.0" encoding="UTF-8"?><svg id="b" xmlns="http://www.w3.org/2000/svg" viewBox="0 0 65 65.45"><defs><style>.e{fill:#fff;stroke-width:0px;}</style></defs><g id="c"><g id="d"><path class="e" d="m31.56,0c1.02,0,2.04,0,3.06,0,1,.14,2.01.27,3.01.41,17.24,2.41,29.47,18.58,27.08,35.78-3.05,21.93-26.58,34.17-46.33,24.14-.47-.24-1.2-.27-1.71-.11-5.04,1.56-10.05,3.19-15.07,4.8-.47.15-.94.26-1.59.44.18-.58.29-.95.42-1.32,1.64-4.86,3.26-9.72,4.93-14.57.27-.79.21-1.4-.2-2.13C-5.19,28.8,5.29,5.47,26.08.86,27.88.46,29.73.28,31.56,0ZM8.22,57.35c.57-.16.95-.24,1.32-.36,2.6-.83,5.2-1.65,7.79-2.52.75-.25,1.32-.19,2.02.23,5.55,3.32,11.54,4.53,17.93,3.48,14.52-2.37,24.15-15.68,22.03-30.41-2.01-14-15.47-24.01-29.77-22.14C10.9,8.07.56,28.79,9.99,45.03c1.17,2.02,1.39,3.61.49,5.68-.9,2.08-1.48,4.3-2.26,6.64Z"/><path class="e" d="m17.05,24.22c.06-2.84,1.17-5.16,3.26-7.03.92-.82,3.55-1.17,4.54-.53.36.23.65.69.81,1.11.83,2.13,1.65,4.27,2.39,6.43.14.42.09,1.06-.14,1.42-.59.9-1.3,1.75-2.04,2.54-.55.59-.7,1.11-.3,1.84,2.5,4.56,6.08,7.93,10.85,10.02.67.29,1.19.19,1.66-.34.81-.93,1.68-1.82,2.43-2.8.6-.78,1.24-.94,2.07-.5,2.12,1.12,4.27,2.19,6.34,3.4.39.23.68,1.03.64,1.54-.25,3.31-2.46,5.64-5.79,6.33-1.72.36-3.36.24-5.05-.27-7.41-2.24-13.2-6.6-17.45-13.05-1.62-2.46-3.31-4.89-3.92-7.85-.15-.74-.21-1.51-.31-2.26Z"/></g></g></svg>