<?xml version="1.0" encoding="UTF-8"?><svg id="b" xmlns="http://www.w3.org/2000/svg" xmlns:xlink="http://www.w3.org/1999/xlink" viewBox="0 0 557.95 190.9"><defs><style>.h{filter:url(#e);}.i{fill:#fff;stroke-width:0px;}</style><filter id="e" filterUnits="userSpaceOnUse"><feOffset dx="7" dy="7"/><feGaussianBlur result="f" stdDeviation="5"/><feFlood flood-color="#000" flood-opacity=".2"/><feComposite in2="f" operator="in"/><feComposite in="SourceGraphic"/></filter></defs><g id="c"><g id="d"><g id="g" class="h"><path class="i" d="m342.72,34.64v31.17h.03v25.57c0,5.19-1.11,10.17-3.34,14.93-2.23,4.76-5.18,8.99-8.86,12.66-3.68,3.68-7.94,6.6-12.77,8.77-4.83,2.17-9.86,3.25-15.07,3.25s-10.05-1.05-14.49-3.14c-4.45-2.09-8.28-4.92-11.5-8.48-3.22-3.56-5.73-7.73-7.54-12.49-1.8-4.76-2.7-9.82-2.7-15.16v-57.22h-18.18v57.33c0,7.82,1.3,15.18,3.91,22.07,2.61,6.89,6.23,12.9,10.87,18.01,4.64,5.11,10.18,9.16,16.62,12.14,6.44,2.98,13.53,4.47,21.28,4.47,5.14,0,10.12-.77,14.96-2.32,4.83-1.55,9.28-3.54,13.34-5.98,4.06-2.44,7.67-5.21,10.81-8.31,2.09-2.06,3.89-4.1,5.4-6.13v22.74h15.3V34.64h-18.09Z"/><path class="i" d="m86.87,10.19c0-2.83,1.02-5.24,3.05-7.22S94.42,0,97.34,0c1.46,0,2.84.26,4.14.78,1.3.52,2.43,1.25,3.39,2.18.96.93,1.73,2.01,2.3,3.24.58,1.23.86,2.56.86,3.97,0,1.49-.29,2.85-.86,4.08-.58,1.23-1.34,2.29-2.3,3.19-.96.9-2.09,1.59-3.39,2.07-1.31.49-2.69.73-4.14.73-2.92,0-5.39-.95-7.42-2.85-2.03-1.9-3.05-4.31-3.05-7.22Z"/><path class="i" d="m88.59,148.7V46.75c0-2.52.84-4.65,2.53-6.4,1.69-1.75,3.87-2.63,6.56-2.63,2.45,0,4.58.88,6.38,2.63,1.8,1.76,2.7,3.89,2.7,6.4v101.96"/><path class="i" d="m557.95,91.08c0-31.83-26.47-57.73-59-57.73s-59,25.9-59,57.73,26.47,57.73,59,57.73c15.92,0,30.38-6.21,41-16.27v16.27h18v-55.4h-.06c.03-.77.06-1.55.06-2.33Zm-59,39.73c-22.61,0-41-17.82-41-39.73s18.39-39.73,41-39.73,41,17.82,41,39.73-18.39,39.73-41,39.73Z"/><path class="i" d="m73,80.33h-32.98v-21.33c0-41,21.07-41,28-41V0C39.06,0,22.35,21.11,22.04,57.96h-.01v22.38H0v18h22.02v50.37h18v-50.37h32.98v-18Z"/><path class="i" d="m216.26,34.51v19.87c-.71-.84-1.48-1.69-2.32-2.55-2.84-2.91-6.21-5.6-10.12-8.05-3.91-2.45-8.3-4.49-13.17-6.1-4.87-1.61-9.99-2.42-15.36-2.42-7.75,0-14.88,1.48-21.4,4.43-6.52,2.95-12.16,6.98-16.91,12.08-4.76,5.1-8.46,11.06-11.1,17.89-2.65,6.83-3.97,14.11-3.97,21.86s1.32,15.03,3.97,21.86c2.65,6.83,6.34,12.79,11.1,17.89,4.75,5.1,10.39,9.13,16.91,12.08,6.52,2.95,13.65,4.43,21.4,4.43,4.83,0,9.51-.67,14.03-2.01,4.52-1.34,8.65-3.12,12.37-5.35,3.72-2.22,6.92-4.79,9.61-7.71,2.68-2.91,4.6-5.94,5.75-9.09.46,8.51.17,15.86-.86,22.03-1.04,6.17-2.92,11.31-5.64,15.42-2.72,4.1-6.37,7.19-10.93,9.26-4.56,2.07-10.11,3.22-16.62,3.45-3.15.15-6.04-.06-8.69-.63l-8.51,15.01c2.72,1,5.71,1.71,8.97,2.13,3.26.42,6.34.63,9.26.63,6.9,0,13.4-1.21,19.5-3.62,6.1-2.42,11.43-5.92,15.99-10.53,4.56-4.6,8.19-10.18,10.87-16.74,2.68-6.56,4.03-13.98,4.03-22.26v-72.39h.02v-30.86h-18.18Zm-3.53,72.02c-2.11,4.72-4.97,8.84-8.57,12.37-3.61,3.53-7.8,6.33-12.6,8.4-4.79,2.07-9.84,3.11-15.13,3.11s-10.24-1.04-14.61-3.11c-4.37-2.07-8.13-4.87-11.27-8.4-3.15-3.53-5.58-7.65-7.3-12.37-1.73-4.72-2.59-9.72-2.59-15.01s.86-10.41,2.59-15.13c1.73-4.72,4.16-8.84,7.3-12.37,3.14-3.53,6.9-6.31,11.27-8.34,4.37-2.03,9.24-3.05,14.61-3.05s10.08,1.05,14.84,3.16c4.75,2.11,8.95,4.95,12.6,8.51,3.64,3.57,6.56,7.69,8.74,12.37,2.19,4.68,3.28,9.63,3.28,14.84s-1.05,10.3-3.16,15.01Z"/><path class="i" d="m431.18,37.18c-5.45-.44-19.92-1.59-34.23,8.32-1.53,1.06-2.94,2.17-4.27,3.3v-14.29h-18v114.55h18v-68.87c0-.14.02-.27.06-.4,1.51-4.51,5.4-13.14,14.43-19.4,9.04-6.26,18.19-5.53,22.58-5.18.47.04.88.07,1.22.09l1.11-18.05c-.26-.02-.56-.04-.91-.07Z"/></g></g></g></svg>